Poster: 
http://imgr.us/images/vkw9rbuzx6vav5kxxm6z.jpeg

Info:

Format : MPEG-4
Format profile : Base Media
Codec ID : isom
File size : 700 MiB
Duration : 1h 42mn
Overall bit rate mode : Variable
Overall bit rate : 955 Kbps
Encoded date : UTC 2012-11-18 15:30:07
Tagged date : UTC 2012-11-18 15:30:07

Video
ID : 1
Format : AVC
Format/Info : Advanced Video Codec
Format profile : High@L4.1
Format settings, CABAC : Yes
Format settings, ReFrames : 3 frames
Codec ID : avc1
Codec ID/Info : Advanced Video Coding
Duration : 1h 42mn
Bit rate mode : Variable
Bit rate : 862 Kbps
Maximum bit rate : 40.0 Mbps
Width : 640 pixels
Height : 238 pixels
Display aspect ratio : 2.689
Frame rate mode : Constant
Frame rate : 29.970 fps
Color space : YUV
Chroma subsampling : 4:2:0
Bit depth : 8 bits
Scan type : Progressive
Bits/(Pixel*Frame) : 0.189
Stream size : 631 MiB (90%)
Writing library : x264 core 129 r2230 1cffe9f
Encoded date : UTC 2012-11-18 15:30:07
Tagged date : UTC 2012-11-18 15:30:50
Color primaries : BT.709-5, BT.1361, IEC 61966-2-4, SMPTE RP177
Transfer characteristics : BT.709-5, BT.1361
Matrix coefficients : BT.709-5, BT.1361, IEC 61966-2-4 709, SMPTE RP177

Audio
ID : 2
Format : AAC
Format/Info : Advanced Audio Codec
Format profile : LC
Codec ID : 40
Duration : 1h 42mn
Bit rate mode : Variable
Bit rate : 88.9 Kbps
Maximum bit rate : 109 Kbps
Channel(s) : 2 channels
Channel positions : Front: L R
Sampling rate : 44.1 KHz
Compression mode : Lossy
Stream size : 65.1 MiB (9%)
Language : English
Encoded date : UTC 2012-11-18 15:30:48
Tagged date : UTC 2012-11-18 15:30:50

iMDB: http://www.imdb.com/title/tt1673434/

Notes:
Resized to fix the AR, tweaked gamma, sat, brightness, contrast, chroma, and slight sharpen. it still has minor issues like pixelation and a bit bright in parts, but i did what i could with it, cam audio for now got a bit of noise to it but its clear.

Enjoy another KICKASS UNiQUE RELEASE !!!!!!



Screens:
 
http://imgr.us/images/x7xp1fogcamnwsyetr9.png 
http://imgr.us/images/mfw0qt8oweksk2nl989m.png 
http://imgr.us/images/ho887ao1ihk45f6ujcvo.png 
http://imgr.us/images/0rtt2jqty6k9rvxkbkow.png 
http://imgr.us/images/c4bww0ue5kqpkxtzb4.png 
http://imgr.us/images/b1wrz7e9aq8wv6qx87t9.png
